<?xml version="1.0" encoding="UTF-8" standalone="no"?>
<!DOCTYPE svg PUBLIC "-//W3C//DTD SVG 1.1//EN" "http://www.w3.org/Graphics/SVG/1.1/DTD/svg11.dtd">
<svg width="100%" height="100%" viewBox="0 0 870 256" version="1.1" xmlns="http://www.w3.org/2000/svg" xmlns:xlink="http://www.w3.org/1999/xlink" xml:space="preserve" xmlns:serif="http://www.serif.com/" style="fill-rule:evenodd;clip-rule:evenodd;stroke-linejoin:round;stroke-miterlimit:2;">
    <path d="M256,56.32L256,199.68C256,230.764 230.764,256 199.68,256L56.32,256C25.236,256 0,230.764 0,199.68L0,56.32C0,25.236 25.236,0 56.32,0L199.68,0C230.764,0 256,25.236 256,56.32Z" style="fill:url(#_Linear1);"/>
    <g transform="matrix(0.833239,0,0,0.833239,5.075334,21.004549)">
        <g transform="matrix(0.907189,-0.007428,0.007428,0.907189,67.995464,85.527559)">
            <g transform="matrix(1,0,0,1,-61.44,-61.44)">
                <clipPath id="_clip2">
                    <rect x="0" y="0" width="122.88" height="122.88"/>
                </clipPath>
                <g clip-path="url(#_clip2)">
                    <path d="M19.33,106.17C6.997,94.566 -0.005,78.364 -0.005,61.43C-0.005,27.73 27.725,-0 61.425,-0C61.43,-0 61.435,-0 61.44,0C69.481,-0.008 77.444,1.575 84.87,4.66C99.931,10.949 111.916,22.937 118.2,38C126.035,56.792 123.937,78.315 112.62,95.24C110.389,98.576 107.844,101.69 105.02,104.54C104.827,104.729 104.513,104.729 104.32,104.54L101.25,101.48C101.186,101.457 101.128,101.419 101.08,101.37L92.52,92.81C92.331,92.617 92.331,92.303 92.52,92.11L97,87.62C97.193,87.431 97.507,87.431 97.7,87.62L104.31,94.23C105.712,92.413 106.997,90.509 108.16,88.53C112.797,80.637 115.325,71.682 115.5,62.53L106.4,62.53C106.126,62.53 105.9,62.304 105.9,62.03L105.9,55.7C105.9,55.426 106.126,55.2 106.4,55.2L115.16,55.2C114.489,49.455 112.895,43.857 110.44,38.62C107.956,33.336 104.641,28.484 100.62,24.25L94.76,30.11C94.567,30.299 94.253,30.299 94.06,30.11L89.57,25.62C89.381,25.427 89.381,25.113 89.57,24.92L95.22,19.27C90.745,15.667 85.726,12.798 80.35,10.77C75.1,8.77 71.62,7.62 65.75,7.39L65.75,15.39C65.75,15.664 65.524,15.89 65.25,15.89L58.89,15.89C58.616,15.89 58.39,15.664 58.39,15.39L58.39,7.59C52.56,8.14 44.84,9.59 39.7,11.88C34.431,14.196 29.564,17.336 25.28,21.18L31.15,27.05C31.339,27.243 31.339,27.557 31.15,27.75L26.66,32.24C26.467,32.429 26.153,32.429 25.96,32.24L20.16,26.44C16.378,30.875 13.338,35.893 11.16,41.3C9.027,46.709 7.771,52.425 7.44,58.23L16.44,58.23C16.714,58.23 16.94,58.456 16.94,58.73L16.94,65.09C16.94,65.364 16.714,65.59 16.44,65.59L7.44,65.59C7.657,68.482 8.109,71.351 8.79,74.17C9.506,77.155 10.48,80.073 11.7,82.89C12.742,85.308 13.959,87.648 15.34,89.89C16.625,91.987 18.055,93.992 19.62,95.89L26.86,88.65C27.053,88.461 27.367,88.461 27.56,88.65L32.05,93.14C32.239,93.333 32.239,93.647 32.05,93.84C28,97.93 24,101.9 20,106.15C19.91,106.243 19.785,106.296 19.655,106.296C19.525,106.296 19.4,106.243 19.31,106.15L19.33,106.17Z" style="fill:white;fill-opacity:0.75;fill-rule:nonzero;"/>
                </g>
            </g>
        </g>
        <g transform="matrix(1.089159,0,0,1.089159,-10.75333,-17.048361)">
            <g transform="matrix(1,0,0,1,-11.117637,-13.981016)">
                <path d="M85.38,96.19L77.11,109.47L82.76,109.47L80.59,120.13L89.73,105.98L83.64,105.98L85.38,96.19Z" style="fill:white;fill-rule:nonzero;"/>
            </g>
            <g transform="matrix(-0.004504,-0.362687,0.362687,-0.004504,72.302363,94.178984)">
                <g transform="matrix(1,0,0,1,-61.44,-36.585)">
                    <clipPath id="_clip3">
                        <rect x="0" y="0" width="122.88" height="73.17"/>
                    </clipPath>
                    <g clip-path="url(#_clip3)">
                        <path d="M109.58,62.92L109.58,52.81L119.66,52.81C121.424,52.805 122.875,51.354 122.88,49.59L122.88,23.59C122.869,21.828 121.422,20.381 119.66,20.37L109.58,20.37L109.58,10.25C109.583,7.535 108.503,4.927 106.58,3.01L106.38,2.83C104.496,1.026 101.989,0.012 99.38,0L10.25,-0C4.633,0.016 0.016,4.633 0,10.25L0,62.92C-0.002,65.632 1.078,68.236 3,70.15C4.917,72.073 7.525,73.153 10.24,73.15L99.33,73.15C104.947,73.134 109.564,68.517 109.58,62.9L109.58,62.92ZM103.58,10.25L103.58,62.92C103.569,65.225 101.675,67.119 99.37,67.13L10.25,67.13C9.124,67.137 8.042,66.689 7.25,65.89C6.456,65.095 6.013,64.014 6.02,62.89L6.02,10.25C6.02,10.243 6.02,10.237 6.02,10.23C6.02,7.909 7.929,6 10.25,6C10.25,6 99.33,6 99.33,6C100.39,5.999 101.413,6.399 102.19,7.12L102.3,7.24C103.097,8.034 103.544,9.115 103.54,10.24L103.58,10.25Z" style="fill:white;fill-rule:nonzero;"/>
                        <path d="M36.05,60.56L36.05,12.39L15.23,12.39C13.804,12.406 12.636,13.574 12.62,15L12.62,58C12.625,59.428 13.802,60.6 15.23,60.6L36.05,60.56Z" style="fill:white;"/>
                    </g>
                </g>
            </g>
        </g>
    </g>
    <g transform="matrix(0.833239,0,0,0.833239,37.615505,22.183392)">
        <g transform="matrix(0.907018,-0.019112,0.019112,0.907018,187.29715,84.820173)">
            <g transform="matrix(1,0,0,1,-61.44,-61.44)">
                <clipPath id="_clip4">
                    <rect x="0" y="0" width="122.88" height="122.88"/>
                </clipPath>
                <g clip-path="url(#_clip4)">
                    <path d="M19.33,106.17C6.997,94.566 -0.005,78.364 -0.005,61.43C-0.005,27.73 27.725,-0 61.425,-0C61.43,-0 61.435,-0 61.44,0C69.481,-0.008 77.444,1.575 84.87,4.66C99.931,10.949 111.916,22.937 118.2,38C126.035,56.792 123.937,78.315 112.62,95.24C110.389,98.576 107.844,101.69 105.02,104.54C104.827,104.729 104.513,104.729 104.32,104.54L101.25,101.48C101.186,101.457 101.128,101.419 101.08,101.37L92.52,92.81C92.331,92.617 92.331,92.303 92.52,92.11L97,87.62C97.193,87.431 97.507,87.431 97.7,87.62L104.31,94.23C105.712,92.413 106.997,90.509 108.16,88.53C112.797,80.637 115.325,71.682 115.5,62.53L106.4,62.53C106.126,62.53 105.9,62.304 105.9,62.03L105.9,55.7C105.9,55.426 106.126,55.2 106.4,55.2L115.16,55.2C114.489,49.455 112.895,43.857 110.44,38.62C107.956,33.336 104.641,28.484 100.62,24.25L94.76,30.11C94.567,30.299 94.253,30.299 94.06,30.11L89.57,25.62C89.381,25.427 89.381,25.113 89.57,24.92L95.22,19.27C90.745,15.667 85.726,12.798 80.35,10.77C75.1,8.77 71.62,7.62 65.75,7.39L65.75,15.39C65.75,15.664 65.524,15.89 65.25,15.89L58.89,15.89C58.616,15.89 58.39,15.664 58.39,15.39L58.39,7.59C52.56,8.14 44.84,9.59 39.7,11.88C34.431,14.196 29.564,17.336 25.28,21.18L31.15,27.05C31.339,27.243 31.339,27.557 31.15,27.75L26.66,32.24C26.467,32.429 26.153,32.429 25.96,32.24L20.16,26.44C16.378,30.875 13.338,35.893 11.16,41.3C9.027,46.709 7.771,52.425 7.44,58.23L16.44,58.23C16.714,58.23 16.94,58.456 16.94,58.73L16.94,65.09C16.94,65.364 16.714,65.59 16.44,65.59L7.44,65.59C7.657,68.482 8.109,71.351 8.79,74.17C9.506,77.155 10.48,80.073 11.7,82.89C12.742,85.308 13.959,87.648 15.34,89.89C16.625,91.987 18.055,93.992 19.62,95.89L26.86,88.65C27.053,88.461 27.367,88.461 27.56,88.65L32.05,93.14C32.239,93.333 32.239,93.647 32.05,93.84C28,97.93 24,101.9 20,106.15C19.91,106.243 19.785,106.296 19.655,106.296C19.525,106.296 19.4,106.243 19.31,106.15L19.33,106.17Z" style="fill:white;fill-opacity:0.75;fill-rule:nonzero;"/>
                </g>
            </g>
        </g>
        <g transform="matrix(0.095586,0,0,0.095586,187.29715,84.820173)">
            <g transform="matrix(1,0,0,1,-226,-255.787)">
                <path d="M23.05,0L428.951,0C441.606,0 452,10.397 452,23.05L452,488.525C452,501.196 441.621,511.574 428.951,511.574L23.049,511.574C10.379,511.574 0,501.194 0,488.525L0,23.05C0,10.361 10.361,0 23.05,0ZM226,158.139C259.785,158.139 290.376,171.835 312.52,193.978C334.661,216.119 348.358,246.71 348.358,280.496C348.358,314.281 334.662,344.872 312.52,367.015C290.378,389.157 259.785,402.854 226,402.854C192.215,402.854 161.624,389.157 139.482,367.015C117.339,344.872 103.643,314.281 103.643,280.496C103.643,246.71 117.341,216.119 139.482,193.978C161.622,171.836 192.215,158.139 226,158.139ZM268.925,253.088C270.018,252.036 271.477,251.449 272.994,251.449C276.213,251.449 278.861,254.097 278.861,257.316C278.861,258.911 278.211,260.439 277.062,261.545L206.175,329.88C205.089,330.894 203.657,331.458 202.171,331.458C198.952,331.458 196.302,328.808 196.302,325.589C196.302,324.025 196.927,322.524 198.037,321.423L268.925,253.088ZM245.825,231.114C246.907,230.121 248.324,229.57 249.792,229.57C253.012,229.57 255.662,232.22 255.662,235.44C255.662,236.987 255.051,238.472 253.963,239.571L183.077,307.907C181.995,308.899 180.578,309.451 179.11,309.451C175.89,309.451 173.24,306.801 173.24,303.581C173.24,302.034 173.851,300.548 174.94,299.449L245.825,231.114ZM226,197.348C271.921,197.348 309.149,234.576 309.149,280.497C309.149,326.419 271.921,363.647 226,363.647C180.079,363.647 142.851,326.419 142.851,280.497C142.851,234.576 180.079,197.348 226,197.348ZM431.666,462.118C433.259,461.611 434.584,460.822 435.668,459.779C437.822,457.706 439.305,454.485 440.23,450.329L440.23,98.049L11.77,98.049L11.77,449.952C13.255,454.278 15.024,457.494 17.059,459.651C18.156,460.818 19.349,461.657 20.63,462.188C21.411,462.358 22.22,462.449 23.05,462.449L428.951,462.449C429.887,462.449 430.797,462.333 431.666,462.118ZM259.136,33.456C263.674,33.456 267.786,35.297 270.762,38.273L270.929,38.456C273.911,41.517 275.58,45.626 275.579,49.899C275.579,54.438 273.738,58.549 270.762,61.525C267.683,64.612 263.496,66.347 259.136,66.342C254.775,66.347 250.588,64.612 247.508,61.525C244.421,58.446 242.686,54.259 242.691,49.899C242.69,45.54 244.427,41.356 247.514,38.279C250.588,35.187 254.775,33.449 259.136,33.456ZM47.058,68.393C44.237,68.393 41.916,66.072 41.916,63.251C41.916,60.43 44.237,58.109 47.058,58.109L134.631,58.109C137.414,58.164 139.673,60.468 139.673,63.251C139.673,66.034 137.414,68.338 134.631,68.393L47.058,68.393ZM47.058,39.94C44.275,39.885 42.016,37.581 42.016,34.798C42.016,32.015 44.275,29.711 47.058,29.656L134.631,29.656C137.452,29.656 139.773,31.977 139.773,34.798C139.773,37.619 137.452,39.94 134.631,39.94L47.058,39.94ZM383.171,33.456C387.709,33.456 391.821,35.297 394.797,38.273L394.965,38.456C397.946,41.517 399.615,45.626 399.614,49.899C399.614,54.438 397.773,58.549 394.797,61.525C391.718,64.612 387.531,66.347 383.171,66.342C378.812,66.344 374.627,64.607 371.551,61.519C368.458,58.446 366.72,54.259 366.727,49.899C366.727,45.374 368.569,41.265 371.545,38.285L371.557,38.273C374.544,35.294 378.65,33.456 383.171,33.456ZM321.153,33.456C325.692,33.456 329.803,35.297 332.779,38.273L332.947,38.456C335.929,41.517 337.598,45.626 337.597,49.899C337.597,54.438 335.755,58.549 332.779,61.525C329.7,64.612 325.513,66.347 321.153,66.342C316.794,66.344 312.61,64.607 309.533,61.519C306.441,58.445 304.703,54.259 304.71,49.899C304.71,45.374 306.551,41.265 309.527,38.285L309.539,38.273C312.527,35.294 316.632,33.456 321.153,33.456Z" style="fill:white;"/>
            </g>
        </g>
    </g>
    <g>
        <g transform="matrix(1.085509,0,0,1.085509,276.598956,164.686828)">
            <g>
                <g transform="matrix(96,0,0,96,0,0)">
                    <path d="M0.073,-0L0.073,-0.716L0.604,-0.716L0.604,-0.595L0.217,-0.595L0.217,-0.436L0.577,-0.436L0.577,-0.315L0.217,-0.315L0.217,-0.121L0.617,-0.121L0.617,-0L0.073,-0Z" style="fill:rgb(42,143,116);fill-rule:nonzero;"/>
                </g>
                <g transform="matrix(96,0,0,96,64.03125,0)">
                    <path d="M0.255,-0L-0,-0.716L0.156,-0.716L0.337,-0.186L0.513,-0.716L0.666,-0.716L0.41,-0L0.255,-0Z" style="fill:rgb(42,143,116);fill-rule:nonzero;"/>
                </g>
            </g>
            <g transform="matrix(96,0,0,96,128.0625,0)">
                <path d="M0.216,-0.349C0.216,-0.328 0.209,-0.311 0.195,-0.296C0.18,-0.282 0.162,-0.275 0.142,-0.275C0.12,-0.275 0.103,-0.282 0.088,-0.296C0.074,-0.311 0.067,-0.328 0.067,-0.349C0.067,-0.37 0.074,-0.387 0.089,-0.402C0.103,-0.417 0.121,-0.424 0.142,-0.424C0.162,-0.424 0.18,-0.417 0.194,-0.402C0.209,-0.387 0.216,-0.37 0.216,-0.349Z" style="fill:rgb(42,143,116);fill-rule:nonzero;"/>
            </g>
            <g>
                <g transform="matrix(96,0,0,96,155.25,0)">
                    <path d="M0.073,-0.716L0.359,-0.716C0.416,-0.716 0.458,-0.713 0.486,-0.709C0.514,-0.704 0.539,-0.694 0.561,-0.679C0.583,-0.664 0.601,-0.644 0.616,-0.619C0.63,-0.594 0.638,-0.567 0.638,-0.536C0.638,-0.502 0.629,-0.471 0.611,-0.443C0.593,-0.415 0.568,-0.394 0.537,-0.38C0.581,-0.368 0.614,-0.346 0.638,-0.315C0.661,-0.285 0.673,-0.249 0.673,-0.208C0.673,-0.175 0.665,-0.143 0.65,-0.113C0.635,-0.082 0.614,-0.057 0.588,-0.039C0.562,-0.02 0.53,-0.009 0.491,-0.005C0.467,-0.002 0.409,-0.001 0.317,-0L0.073,-0L0.073,-0.716ZM0.218,-0.597L0.218,-0.431L0.312,-0.431C0.369,-0.431 0.404,-0.432 0.417,-0.434C0.442,-0.437 0.462,-0.445 0.476,-0.459C0.49,-0.473 0.497,-0.492 0.497,-0.515C0.497,-0.537 0.491,-0.555 0.479,-0.569C0.467,-0.583 0.448,-0.591 0.424,-0.594C0.41,-0.596 0.369,-0.597 0.301,-0.597L0.218,-0.597ZM0.218,-0.312L0.218,-0.121L0.352,-0.121C0.404,-0.121 0.437,-0.122 0.451,-0.125C0.472,-0.129 0.49,-0.138 0.503,-0.154C0.517,-0.169 0.523,-0.189 0.523,-0.214C0.523,-0.236 0.518,-0.254 0.508,-0.269C0.497,-0.284 0.482,-0.295 0.463,-0.302C0.443,-0.309 0.4,-0.312 0.334,-0.312L0.218,-0.312Z" style="fill:rgb(42,143,116);fill-rule:nonzero;"/>
                </g>
                <g transform="matrix(96,0,0,96,224.578125,0)">
                    <path d="M0.174,-0.36L0.05,-0.383C0.064,-0.433 0.088,-0.47 0.122,-0.494C0.156,-0.518 0.207,-0.53 0.274,-0.53C0.336,-0.53 0.381,-0.523 0.411,-0.509C0.441,-0.494 0.462,-0.476 0.474,-0.453C0.487,-0.431 0.493,-0.39 0.493,-0.331L0.491,-0.17C0.491,-0.125 0.493,-0.091 0.498,-0.07C0.502,-0.048 0.51,-0.025 0.522,-0L0.387,-0C0.383,-0.009 0.379,-0.023 0.374,-0.041C0.371,-0.049 0.37,-0.054 0.369,-0.057C0.345,-0.034 0.32,-0.017 0.293,-0.005C0.267,0.006 0.238,0.012 0.208,0.012C0.155,0.012 0.113,-0.003 0.082,-0.032C0.051,-0.061 0.036,-0.097 0.036,-0.142C0.036,-0.171 0.043,-0.197 0.057,-0.22C0.071,-0.243 0.09,-0.26 0.115,-0.273C0.141,-0.285 0.177,-0.296 0.225,-0.305C0.289,-0.317 0.333,-0.328 0.358,-0.338L0.358,-0.352C0.358,-0.378 0.351,-0.397 0.338,-0.408C0.325,-0.42 0.301,-0.425 0.265,-0.425C0.24,-0.425 0.221,-0.42 0.208,-0.411C0.194,-0.401 0.183,-0.384 0.174,-0.36ZM0.358,-0.249C0.34,-0.243 0.312,-0.236 0.274,-0.228C0.236,-0.22 0.211,-0.212 0.2,-0.204C0.182,-0.191 0.173,-0.175 0.173,-0.156C0.173,-0.137 0.18,-0.12 0.194,-0.106C0.209,-0.092 0.227,-0.085 0.249,-0.085C0.274,-0.085 0.297,-0.093 0.32,-0.109C0.336,-0.122 0.347,-0.137 0.353,-0.155C0.356,-0.167 0.358,-0.189 0.358,-0.222L0.358,-0.249Z" style="fill:rgb(42,143,116);fill-rule:nonzero;"/>
                </g>
                <g transform="matrix(96,0,0,96,277.96875,0)">
                    <rect x="0.072" y="-0.716" width="0.137" height="0.716" style="fill:rgb(42,143,116);fill-rule:nonzero;"/>
                </g>
                <g transform="matrix(96,0,0,96,304.640625,0)">
                    <path d="M0.174,-0.36L0.05,-0.383C0.064,-0.433 0.088,-0.47 0.122,-0.494C0.156,-0.518 0.207,-0.53 0.274,-0.53C0.336,-0.53 0.381,-0.523 0.411,-0.509C0.441,-0.494 0.462,-0.476 0.474,-0.453C0.487,-0.431 0.493,-0.39 0.493,-0.331L0.491,-0.17C0.491,-0.125 0.493,-0.091 0.498,-0.07C0.502,-0.048 0.51,-0.025 0.522,-0L0.387,-0C0.383,-0.009 0.379,-0.023 0.374,-0.041C0.371,-0.049 0.37,-0.054 0.369,-0.057C0.345,-0.034 0.32,-0.017 0.293,-0.005C0.267,0.006 0.238,0.012 0.208,0.012C0.155,0.012 0.113,-0.003 0.082,-0.032C0.051,-0.061 0.036,-0.097 0.036,-0.142C0.036,-0.171 0.043,-0.197 0.057,-0.22C0.071,-0.243 0.09,-0.26 0.115,-0.273C0.141,-0.285 0.177,-0.296 0.225,-0.305C0.289,-0.317 0.333,-0.328 0.358,-0.338L0.358,-0.352C0.358,-0.378 0.351,-0.397 0.338,-0.408C0.325,-0.42 0.301,-0.425 0.265,-0.425C0.24,-0.425 0.221,-0.42 0.208,-0.411C0.194,-0.401 0.183,-0.384 0.174,-0.36ZM0.358,-0.249C0.34,-0.243 0.312,-0.236 0.274,-0.228C0.236,-0.22 0.211,-0.212 0.2,-0.204C0.182,-0.191 0.173,-0.175 0.173,-0.156C0.173,-0.137 0.18,-0.12 0.194,-0.106C0.209,-0.092 0.227,-0.085 0.249,-0.085C0.274,-0.085 0.297,-0.093 0.32,-0.109C0.336,-0.122 0.347,-0.137 0.353,-0.155C0.356,-0.167 0.358,-0.189 0.358,-0.222L0.358,-0.249Z" style="fill:rgb(42,143,116);fill-rule:nonzero;"/>
                </g>
                <g transform="matrix(96,0,0,96,358.03125,0)">
                    <path d="M0.543,-0L0.406,-0L0.406,-0.265C0.406,-0.321 0.403,-0.357 0.397,-0.373C0.392,-0.39 0.382,-0.403 0.369,-0.412C0.356,-0.421 0.34,-0.425 0.321,-0.425C0.298,-0.425 0.276,-0.419 0.257,-0.406C0.238,-0.393 0.226,-0.375 0.219,-0.354C0.212,-0.333 0.208,-0.293 0.208,-0.235L0.208,-0L0.071,-0L0.071,-0.519L0.198,-0.519L0.198,-0.442C0.243,-0.501 0.3,-0.53 0.369,-0.53C0.399,-0.53 0.427,-0.525 0.452,-0.514C0.477,-0.503 0.496,-0.489 0.509,-0.472C0.522,-0.455 0.531,-0.436 0.536,-0.415C0.541,-0.393 0.543,-0.362 0.543,-0.322L0.543,-0Z" style="fill:rgb(42,143,116);fill-rule:nonzero;"/>
                </g>
                <g transform="matrix(96,0,0,96,416.671875,0)">
                    <path d="M0.524,-0.365L0.389,-0.341C0.384,-0.368 0.374,-0.388 0.358,-0.402C0.342,-0.416 0.321,-0.422 0.295,-0.422C0.261,-0.422 0.233,-0.411 0.213,-0.387C0.193,-0.363 0.183,-0.324 0.183,-0.269C0.183,-0.207 0.193,-0.164 0.214,-0.138C0.234,-0.113 0.262,-0.1 0.297,-0.1C0.323,-0.1 0.344,-0.108 0.361,-0.122C0.377,-0.137 0.389,-0.163 0.396,-0.199L0.531,-0.176C0.517,-0.114 0.49,-0.067 0.45,-0.036C0.41,-0.004 0.357,0.012 0.291,0.012C0.215,0.012 0.154,-0.012 0.109,-0.06C0.064,-0.108 0.042,-0.174 0.042,-0.259C0.042,-0.344 0.064,-0.411 0.109,-0.459C0.155,-0.506 0.216,-0.53 0.293,-0.53C0.356,-0.53 0.406,-0.517 0.444,-0.49C0.481,-0.462 0.508,-0.421 0.524,-0.365Z" style="fill:rgb(42,143,116);fill-rule:nonzero;"/>
                </g>
                <g transform="matrix(96,0,0,96,470.0625,0)">
                    <path d="M0.372,-0.165L0.509,-0.142C0.491,-0.092 0.463,-0.054 0.426,-0.028C0.388,-0.001 0.34,0.012 0.283,0.012C0.193,0.012 0.126,-0.018 0.083,-0.077C0.049,-0.124 0.032,-0.183 0.032,-0.255C0.032,-0.341 0.054,-0.409 0.099,-0.457C0.144,-0.506 0.201,-0.53 0.27,-0.53C0.347,-0.53 0.408,-0.505 0.452,-0.454C0.497,-0.403 0.518,-0.325 0.516,-0.22L0.172,-0.22C0.173,-0.179 0.184,-0.147 0.206,-0.125C0.227,-0.102 0.253,-0.091 0.285,-0.091C0.306,-0.091 0.324,-0.097 0.339,-0.108C0.354,-0.12 0.365,-0.139 0.372,-0.165ZM0.38,-0.304C0.379,-0.343 0.369,-0.374 0.349,-0.394C0.33,-0.415 0.306,-0.425 0.278,-0.425C0.248,-0.425 0.223,-0.414 0.204,-0.393C0.184,-0.371 0.174,-0.341 0.175,-0.304L0.38,-0.304Z" style="fill:rgb(42,143,116);fill-rule:nonzero;"/>
                </g>
            </g>
        </g>
        <g transform="matrix(0.595049,0,0,0.595049,74.130162,233.37786)">
            <g>
                <g transform="matrix(96,0,0,96,-5.76,0)">
                    <path d="M0.079,-0L0.079,-0.716L0.597,-0.716L0.597,-0.631L0.174,-0.631L0.174,-0.412L0.57,-0.412L0.57,-0.328L0.174,-0.328L0.174,-0.084L0.613,-0.084L0.613,-0L0.079,-0Z" style="fill:white;fill-opacity:0.75;fill-rule:nonzero;"/>
                </g>
                <g transform="matrix(96,0,0,96,64.03125,0)">
                    <path d="M0.282,-0L0.004,-0.716L0.107,-0.716L0.293,-0.196C0.308,-0.154 0.32,-0.115 0.331,-0.079C0.342,-0.118 0.354,-0.157 0.369,-0.196L0.562,-0.716L0.659,-0.716L0.379,-0L0.282,-0Z" style="fill:white;fill-opacity:0.75;fill-rule:nonzero;"/>
                </g>
                <g transform="matrix(96,0,0,96,133.8225,0)">
                    <path d="M0.073,-0L0.073,-0.716L0.342,-0.716C0.396,-0.716 0.44,-0.709 0.473,-0.694C0.506,-0.68 0.532,-0.657 0.551,-0.627C0.57,-0.597 0.579,-0.566 0.579,-0.533C0.579,-0.502 0.571,-0.473 0.554,-0.446C0.538,-0.419 0.513,-0.397 0.479,-0.381C0.522,-0.368 0.556,-0.347 0.579,-0.316C0.602,-0.285 0.614,-0.249 0.614,-0.208C0.614,-0.174 0.607,-0.143 0.593,-0.114C0.578,-0.085 0.561,-0.063 0.54,-0.047C0.519,-0.032 0.493,-0.02 0.462,-0.012C0.43,-0.004 0.392,-0 0.346,-0L0.073,-0ZM0.168,-0.415L0.323,-0.415C0.365,-0.415 0.395,-0.418 0.413,-0.423C0.437,-0.431 0.455,-0.442 0.468,-0.459C0.48,-0.476 0.486,-0.496 0.486,-0.521C0.486,-0.545 0.48,-0.566 0.469,-0.584C0.457,-0.602 0.441,-0.615 0.42,-0.621C0.399,-0.628 0.362,-0.631 0.311,-0.631L0.168,-0.631L0.168,-0.415ZM0.168,-0.084L0.346,-0.084C0.377,-0.084 0.398,-0.086 0.411,-0.088C0.432,-0.092 0.451,-0.098 0.465,-0.107C0.48,-0.117 0.492,-0.13 0.501,-0.147C0.511,-0.165 0.516,-0.185 0.516,-0.208C0.516,-0.234 0.509,-0.257 0.495,-0.277C0.481,-0.297 0.462,-0.311 0.438,-0.319C0.414,-0.327 0.379,-0.331 0.333,-0.331L0.168,-0.331L0.168,-0.084Z" style="fill:white;fill-opacity:0.75;fill-rule:nonzero;"/>
                </g>
            </g>
        </g>
    </g>
    <g transform="matrix(1,0,0,1,34.444099,5.990142)">
        <path d="M93.556,79.087C93.556,79.087 108.826,132.364 108.826,155.197C108.826,163.624 101.983,170.466 93.556,170.466C85.128,170.466 78.286,163.624 78.286,155.197C78.286,132.364 93.556,79.087 93.556,79.087Z" style="fill:white;"/>
    </g>
    <g transform="matrix(0.090115,0.682973,-1.902471,0.251021,124.773138,-14.853175)">
        <path d="M62.912,22.914C59.339,26.67 56.438,32.591 56.438,39.012C56.438,45.434 59.339,51.355 62.912,55.111C51.002,55.111 41.333,47.897 41.333,39.012C41.333,30.127 51.002,22.914 62.912,22.914Z" style="fill:white;"/>
    </g>
    <g transform="matrix(-0.090115,0.682973,1.902471,0.251021,127.894709,-14.853175)">
        <path d="M62.912,22.914C59.339,26.67 56.438,32.591 56.438,39.012C56.438,45.434 59.339,51.355 62.912,55.111C51.002,55.111 41.333,47.897 41.333,39.012C41.333,30.127 51.002,22.914 62.912,22.914Z" style="fill:white;"/>
    </g>
    <defs>
        <linearGradient id="_Linear1" x1="0" y1="0" x2="1" y2="0" gradientUnits="userSpaceOnUse" gradientTransform="matrix(0,256,-256,0,0,0)"><stop offset="0" style="stop-color:rgb(74,200,167);stop-opacity:1"/><stop offset="1" style="stop-color:rgb(23,110,87);stop-opacity:1"/></linearGradient>
    </defs>
</svg>
