<?xml version="1.0" encoding="UTF-8" standalone="no"?>
<!DOCTYPE svg PUBLIC "-//W3C//DTD SVG 1.1//EN" "http://www.w3.org/Graphics/SVG/1.1/DTD/svg11.dtd">
<svg width="100%" height="100%" viewBox="0 0 860 256" version="1.1" xmlns="http://www.w3.org/2000/svg" xmlns:xlink="http://www.w3.org/1999/xlink" xml:space="preserve" xmlns:serif="http://www.serif.com/" style="fill-rule:evenodd;clip-rule:evenodd;stroke-linecap:round;">
    <g transform="matrix(1,0,0,1,2.279492,0)">
        <path d="M256,56.3L256,199.7C256,230.8 230.8,256 199.7,256L56.3,256C25.2,256 0,230.8 0,199.7L0,56.3C0,25.2 25.2,0 56.3,0L199.7,0C230.8,0 256,25.2 256,56.3Z" style="fill:url(#_Linear1);"/>
        <g transform="matrix(1.218233,0,0,1.218233,-27.93386,-25.23125)">
            <path d="M48.2,174.1C40.1,160.1 35.8,144.2 35.8,128C35.8,77.4 77.4,35.8 128,35.8C178.6,35.8 220.2,77.4 220.2,128C220.2,144.2 215.9,160.1 207.8,174.1" style="fill:none;fill-rule:nonzero;stroke:white;stroke-opacity:0.34;stroke-width:7.2px;"/>
        </g>
        <g transform="matrix(1.070452,0,0,1.070452,-9.017846,-9.72318)">
            <path d="M48.2,174.1L59.3,167.7" style="fill:none;fill-rule:nonzero;stroke:white;stroke-opacity:0.42;stroke-width:4.1px;"/>
            <path d="M37.2,112L49.9,114.2" style="fill:none;fill-rule:nonzero;stroke:white;stroke-opacity:0.42;stroke-width:4.1px;"/>
            <path d="M68.8,57.4L77,67.2" style="fill:none;fill-rule:nonzero;stroke:white;stroke-opacity:0.42;stroke-width:4.1px;"/>
            <path d="M128,35.8L128,48.6" style="fill:none;fill-rule:nonzero;stroke:white;stroke-opacity:0.42;stroke-width:4.1px;"/>
            <path d="M187.2,57.4L179,67.2" style="fill:none;fill-rule:nonzero;stroke:white;stroke-opacity:0.42;stroke-width:4.1px;"/>
            <path d="M218.8,112L206.2,114.2" style="fill:none;fill-rule:nonzero;stroke:white;stroke-opacity:0.42;stroke-width:4.1px;"/>
            <path d="M207.8,174.1L196.7,167.7" style="fill:none;fill-rule:nonzero;stroke:white;stroke-opacity:0.42;stroke-width:4.1px;"/>
        </g>
        <g transform="matrix(1.017662,0,0,1.017662,10.296387,27.161544)">
            <g transform="matrix(1,0,0,1,-11.117637,-13.981016)">
                <path d="M85.4,96.2L77.1,109.5L82.8,109.5L80.6,120.1L89.7,106L83.6,106L85.4,96.2Z" style="fill:white;fill-rule:nonzero;"/>
            </g>
            <g transform="matrix(-0.004504,-0.362687,0.362687,-0.004504,72.302363,94.178984)">
                <g transform="matrix(1,0,0,1,-61.44,-36.585)">
                    <clipPath id="_clip2">
                        <rect x="0" y="0" width="122.9" height="73.2"/>
                    </clipPath>
                    <g clip-path="url(#_clip2)">
                        <path d="M109.6,62.9L109.6,52.8L119.7,52.8C121.4,52.8 122.9,51.4 122.9,49.6L122.9,23.6C122.9,21.8 121.4,20.4 119.7,20.4L109.6,20.4L109.6,10.2C109.6,7.5 108.5,4.9 106.6,3L106.4,2.8C104.5,1 102,0 99.4,0L10.2,-0C4.6,0 0,4.6 0,10.3L0,62.9C-0,65.6 1.1,68.2 3,70.2C4.9,72.1 7.5,73.2 10.2,73.2L99.3,73.2C104.9,73.1 109.6,68.5 109.6,62.9L109.6,62.9ZM103.6,10.2L103.6,62.9C103.6,65.2 101.7,67.1 99.4,67.1L10.2,67.1C9.1,67.1 8,66.7 7.2,65.9C6.5,65.1 6,64 6,62.9L6,10.2C6,10.2 6,10.2 6,10.2C6,7.9 7.9,6 10.2,6C10.2,6 99.3,6 99.3,6C100.4,6 101.4,6.4 102.2,7.1L102.3,7.2C103.1,8 103.5,9.1 103.5,10.2L103.6,10.2Z" style="fill:white;fill-rule:nonzero;"/>
                        <path d="M36,60.6L36,12.4L15.2,12.4C13.8,12.4 12.6,13.6 12.6,15L12.6,58C12.6,59.4 13.8,60.6 15.2,60.6L36,60.6Z" style="fill:white;"/>
                    </g>
                </g>
            </g>
        </g>
        <g transform="matrix(0.089312,0,0,0.089312,180.30695,123.003938)">
            <g transform="matrix(1,0,0,1,-226,-255.787)">
                <clipPath id="_clip3">
                    <rect x="0" y="0" width="452" height="511.6"/>
                </clipPath>
                <g clip-path="url(#_clip3)">
                    <path d="M23.1,0L429,0C441.6,0 452,10.4 452,23.1L452,488.5C452,501.2 441.6,511.6 429,511.6L23,511.6C10.4,511.6 0,501.2 0,488.5L0,23.1C0,10.4 10.4,0 23.1,0ZM226,158.1C259.8,158.1 290.4,171.8 312.5,194C334.7,216.1 348.4,246.7 348.4,280.5C348.4,314.3 334.7,344.9 312.5,367C290.4,389.2 259.8,402.9 226,402.9C192.2,402.9 161.6,389.2 139.5,367C117.3,344.9 103.6,314.3 103.6,280.5C103.6,246.7 117.3,216.1 139.5,194C161.6,171.8 192.2,158.1 226,158.1ZM268.9,253.1C270,252 271.5,251.4 273,251.4C276.2,251.4 278.9,254.1 278.9,257.3C278.9,258.9 278.2,260.4 277.1,261.5L206.2,329.9C205.1,330.9 203.7,331.5 202.2,331.5C199,331.5 196.3,328.8 196.3,325.6C196.3,324 196.9,322.5 198,321.4L268.9,253.1ZM245.8,231.1C246.9,230.1 248.3,229.6 249.8,229.6C253,229.6 255.7,232.2 255.7,235.4C255.7,237 255.1,238.5 254,239.6L183.1,307.9C182,308.9 180.6,309.5 179.1,309.5C175.9,309.5 173.2,306.8 173.2,303.6C173.2,302 173.9,300.5 174.9,299.4L245.8,231.1ZM226,197.3C271.9,197.3 309.1,234.6 309.1,280.5C309.1,326.4 271.9,363.6 226,363.6C180.1,363.6 142.9,326.4 142.9,280.5C142.9,234.6 180.1,197.3 226,197.3ZM431.7,462.1C433.3,461.6 434.6,460.8 435.7,459.8C437.8,457.7 439.3,454.5 440.2,450.3L440.2,98L11.8,98L11.8,450C13.3,454.3 15,457.5 17.1,459.7C18.2,460.8 19.3,461.7 20.6,462.2C21.4,462.4 22.2,462.4 23,462.4L429,462.4C429.9,462.4 430.8,462.3 431.7,462.1ZM259.1,33.5C263.7,33.5 267.8,35.3 270.8,38.3L270.9,38.5C273.9,41.5 275.6,45.6 275.6,49.9C275.6,54.4 273.7,58.5 270.8,61.5C267.7,64.6 263.5,66.3 259.1,66.3C254.8,66.3 250.6,64.6 247.5,61.5C244.4,58.4 242.7,54.3 242.7,49.9C242.7,45.5 244.4,41.4 247.5,38.3C250.6,35.2 254.8,33.4 259.1,33.5ZM47.1,68.4C44.2,68.4 41.9,66.1 41.9,63.3C41.9,60.4 44.2,58.1 47.1,58.1L134.6,58.1C137.4,58.2 139.7,60.5 139.7,63.3C139.7,66 137.4,68.3 134.6,68.4L47.1,68.4ZM47.1,39.9C44.3,39.9 42,37.6 42,34.8C42,32 44.3,29.7 47.1,29.7L134.6,29.7C137.5,29.7 139.8,32 139.8,34.8C139.8,37.6 137.5,39.9 134.6,39.9L47.1,39.9ZM383.2,33.5C387.7,33.5 391.8,35.3 394.8,38.3L395,38.5C397.9,41.5 399.6,45.6 399.6,49.9C399.6,54.4 397.8,58.5 394.8,61.5C391.7,64.6 387.5,66.3 383.2,66.3C378.8,66.3 374.6,64.6 371.6,61.5C368.5,58.4 366.7,54.3 366.7,49.9C366.7,45.4 368.6,41.3 371.5,38.3L371.6,38.3C374.5,35.3 378.6,33.5 383.2,33.5ZM321.2,33.5C325.7,33.5 329.8,35.3 332.8,38.3L332.9,38.5C335.9,41.5 337.6,45.6 337.6,49.9C337.6,54.4 335.8,58.5 332.8,61.5C329.7,64.6 325.5,66.3 321.2,66.3C316.8,66.3 312.6,64.6 309.5,61.5C306.4,58.4 304.7,54.3 304.7,49.9C304.7,45.4 306.6,41.3 309.5,38.3L309.5,38.3C312.5,35.3 316.6,33.5 321.2,33.5Z" style="fill:white;"/>
                </g>
            </g>
        </g>
        <g>
            <g transform="matrix(1.085509,0,0,1.085509,293.039901,159.690766)">
                <g>
                    <g transform="matrix(96,0,0,96,0,0)">
                        <path d="M0.1,-0L0.1,-0.7L0.6,-0.7L0.6,-0.6L0.2,-0.6L0.2,-0.4L0.6,-0.4L0.6,-0.3L0.2,-0.3L0.2,-0.1L0.6,-0.1L0.6,-0L0.1,-0Z" style="fill:rgb(42,143,116);fill-rule:nonzero;"/>
                    </g>
                    <g transform="matrix(96,0,0,96,64.03125,0)">
                        <path d="M0.3,-0L-0,-0.7L0.2,-0.7L0.3,-0.2L0.5,-0.7L0.7,-0.7L0.4,-0L0.3,-0Z" style="fill:rgb(42,143,116);fill-rule:nonzero;"/>
                    </g>
                </g>
                <g transform="matrix(96,0,0,96,128.0625,0)">
                    <path d="M0.2,-0.3C0.2,-0.3 0.2,-0.3 0.2,-0.3C0.2,-0.3 0.2,-0.3 0.1,-0.3C0.1,-0.3 0.1,-0.3 0.1,-0.3C0.1,-0.3 0.1,-0.3 0.1,-0.3C0.1,-0.4 0.1,-0.4 0.1,-0.4C0.1,-0.4 0.1,-0.4 0.1,-0.4C0.2,-0.4 0.2,-0.4 0.2,-0.4C0.2,-0.4 0.2,-0.4 0.2,-0.3Z" style="fill:rgb(42,143,116);fill-rule:nonzero;"/>
                </g>
                <g>
                    <g transform="matrix(96,0,0,96,155.25,0)">
                        <path d="M0.1,-0.7L0.4,-0.7C0.4,-0.7 0.5,-0.7 0.5,-0.7C0.5,-0.7 0.5,-0.7 0.6,-0.7C0.6,-0.7 0.6,-0.6 0.6,-0.6C0.6,-0.6 0.6,-0.6 0.6,-0.5C0.6,-0.5 0.6,-0.5 0.6,-0.4C0.6,-0.4 0.6,-0.4 0.5,-0.4C0.6,-0.4 0.6,-0.3 0.6,-0.3C0.7,-0.3 0.7,-0.2 0.7,-0.2C0.7,-0.2 0.7,-0.1 0.7,-0.1C0.6,-0.1 0.6,-0.1 0.6,-0C0.6,-0 0.5,-0 0.5,-0C0.5,-0 0.4,-0 0.3,-0L0.1,-0L0.1,-0.7ZM0.2,-0.6L0.2,-0.4L0.3,-0.4C0.4,-0.4 0.4,-0.4 0.4,-0.4C0.4,-0.4 0.5,-0.4 0.5,-0.5C0.5,-0.5 0.5,-0.5 0.5,-0.5C0.5,-0.5 0.5,-0.6 0.5,-0.6C0.5,-0.6 0.4,-0.6 0.4,-0.6C0.4,-0.6 0.4,-0.6 0.3,-0.6L0.2,-0.6ZM0.2,-0.3L0.2,-0.1L0.4,-0.1C0.4,-0.1 0.4,-0.1 0.5,-0.1C0.5,-0.1 0.5,-0.1 0.5,-0.2C0.5,-0.2 0.5,-0.2 0.5,-0.2C0.5,-0.2 0.5,-0.3 0.5,-0.3C0.5,-0.3 0.5,-0.3 0.5,-0.3C0.4,-0.3 0.4,-0.3 0.3,-0.3L0.2,-0.3Z" style="fill:rgb(42,143,116);fill-rule:nonzero;"/>
                    </g>
                    <g transform="matrix(96,0,0,96,224.578125,0)">
                        <path d="M0.2,-0.4L0,-0.4C0.1,-0.4 0.1,-0.5 0.1,-0.5C0.2,-0.5 0.2,-0.5 0.3,-0.5C0.3,-0.5 0.4,-0.5 0.4,-0.5C0.4,-0.5 0.5,-0.5 0.5,-0.5C0.5,-0.4 0.5,-0.4 0.5,-0.3L0.5,-0.2C0.5,-0.1 0.5,-0.1 0.5,-0.1C0.5,-0 0.5,-0 0.5,-0L0.4,-0C0.4,-0 0.4,-0 0.4,-0C0.4,-0 0.4,-0.1 0.4,-0.1C0.3,-0 0.3,-0 0.3,-0C0.3,0 0.2,0 0.2,0C0.2,0 0.1,-0 0.1,-0C0.1,-0.1 0,-0.1 0,-0.1C0,-0.2 0,-0.2 0.1,-0.2C0.1,-0.2 0.1,-0.3 0.1,-0.3C0.1,-0.3 0.2,-0.3 0.2,-0.3C0.3,-0.3 0.3,-0.3 0.4,-0.3L0.4,-0.4C0.4,-0.4 0.4,-0.4 0.3,-0.4C0.3,-0.4 0.3,-0.4 0.3,-0.4C0.2,-0.4 0.2,-0.4 0.2,-0.4C0.2,-0.4 0.2,-0.4 0.2,-0.4ZM0.4,-0.2C0.3,-0.2 0.3,-0.2 0.3,-0.2C0.2,-0.2 0.2,-0.2 0.2,-0.2C0.2,-0.2 0.2,-0.2 0.2,-0.2C0.2,-0.1 0.2,-0.1 0.2,-0.1C0.2,-0.1 0.2,-0.1 0.2,-0.1C0.3,-0.1 0.3,-0.1 0.3,-0.1C0.3,-0.1 0.3,-0.1 0.4,-0.2C0.4,-0.2 0.4,-0.2 0.4,-0.2L0.4,-0.2Z" style="fill:rgb(42,143,116);fill-rule:nonzero;"/>
                    </g>
                    <g transform="matrix(96,0,0,96,277.96875,0)">
                        <rect x="0.1" y="-0.7" width="0.1" height="0.7" style="fill:rgb(42,143,116);fill-rule:nonzero;"/>
                    </g>
                    <g transform="matrix(96,0,0,96,304.640625,0)">
                        <path d="M0.2,-0.4L0,-0.4C0.1,-0.4 0.1,-0.5 0.1,-0.5C0.2,-0.5 0.2,-0.5 0.3,-0.5C0.3,-0.5 0.4,-0.5 0.4,-0.5C0.4,-0.5 0.5,-0.5 0.5,-0.5C0.5,-0.4 0.5,-0.4 0.5,-0.3L0.5,-0.2C0.5,-0.1 0.5,-0.1 0.5,-0.1C0.5,-0 0.5,-0 0.5,-0L0.4,-0C0.4,-0 0.4,-0 0.4,-0C0.4,-0 0.4,-0.1 0.4,-0.1C0.3,-0 0.3,-0 0.3,-0C0.3,0 0.2,0 0.2,0C0.2,0 0.1,-0 0.1,-0C0.1,-0.1 0,-0.1 0,-0.1C0,-0.2 0,-0.2 0.1,-0.2C0.1,-0.2 0.1,-0.3 0.1,-0.3C0.1,-0.3 0.2,-0.3 0.2,-0.3C0.3,-0.3 0.3,-0.3 0.4,-0.3L0.4,-0.4C0.4,-0.4 0.4,-0.4 0.3,-0.4C0.3,-0.4 0.3,-0.4 0.3,-0.4C0.2,-0.4 0.2,-0.4 0.2,-0.4C0.2,-0.4 0.2,-0.4 0.2,-0.4ZM0.4,-0.2C0.3,-0.2 0.3,-0.2 0.3,-0.2C0.2,-0.2 0.2,-0.2 0.2,-0.2C0.2,-0.2 0.2,-0.2 0.2,-0.2C0.2,-0.1 0.2,-0.1 0.2,-0.1C0.2,-0.1 0.2,-0.1 0.2,-0.1C0.3,-0.1 0.3,-0.1 0.3,-0.1C0.3,-0.1 0.3,-0.1 0.4,-0.2C0.4,-0.2 0.4,-0.2 0.4,-0.2L0.4,-0.2Z" style="fill:rgb(42,143,116);fill-rule:nonzero;"/>
                    </g>
                    <g transform="matrix(96,0,0,96,358.03125,0)">
                        <path d="M0.5,-0L0.4,-0L0.4,-0.3C0.4,-0.3 0.4,-0.4 0.4,-0.4C0.4,-0.4 0.4,-0.4 0.4,-0.4C0.4,-0.4 0.3,-0.4 0.3,-0.4C0.3,-0.4 0.3,-0.4 0.3,-0.4C0.2,-0.4 0.2,-0.4 0.2,-0.4C0.2,-0.3 0.2,-0.3 0.2,-0.2L0.2,-0L0.1,-0L0.1,-0.5L0.2,-0.5L0.2,-0.4C0.2,-0.5 0.3,-0.5 0.4,-0.5C0.4,-0.5 0.4,-0.5 0.5,-0.5C0.5,-0.5 0.5,-0.5 0.5,-0.5C0.5,-0.5 0.5,-0.4 0.5,-0.4C0.5,-0.4 0.5,-0.4 0.5,-0.3L0.5,-0Z" style="fill:rgb(42,143,116);fill-rule:nonzero;"/>
                    </g>
                    <g transform="matrix(96,0,0,96,416.671875,0)">
                        <path d="M0.5,-0.4L0.4,-0.3C0.4,-0.4 0.4,-0.4 0.4,-0.4C0.3,-0.4 0.3,-0.4 0.3,-0.4C0.3,-0.4 0.2,-0.4 0.2,-0.4C0.2,-0.4 0.2,-0.3 0.2,-0.3C0.2,-0.2 0.2,-0.2 0.2,-0.1C0.2,-0.1 0.3,-0.1 0.3,-0.1C0.3,-0.1 0.3,-0.1 0.4,-0.1C0.4,-0.1 0.4,-0.2 0.4,-0.2L0.5,-0.2C0.5,-0.1 0.5,-0.1 0.5,-0C0.4,-0 0.4,0 0.3,0C0.2,0 0.2,-0 0.1,-0.1C0.1,-0.1 0,-0.2 0,-0.3C0,-0.3 0.1,-0.4 0.1,-0.5C0.2,-0.5 0.2,-0.5 0.3,-0.5C0.4,-0.5 0.4,-0.5 0.4,-0.5C0.5,-0.5 0.5,-0.4 0.5,-0.4Z" style="fill:rgb(42,143,116);fill-rule:nonzero;"/>
                    </g>
                    <g transform="matrix(96,0,0,96,470.0625,0)">
                        <path d="M0.4,-0.2L0.5,-0.1C0.5,-0.1 0.5,-0.1 0.4,-0C0.4,-0 0.3,0 0.3,0C0.2,0 0.1,-0 0.1,-0.1C0,-0.1 0,-0.2 0,-0.3C0,-0.3 0.1,-0.4 0.1,-0.5C0.1,-0.5 0.2,-0.5 0.3,-0.5C0.3,-0.5 0.4,-0.5 0.5,-0.5C0.5,-0.4 0.5,-0.3 0.5,-0.2L0.2,-0.2C0.2,-0.2 0.2,-0.1 0.2,-0.1C0.2,-0.1 0.3,-0.1 0.3,-0.1C0.3,-0.1 0.3,-0.1 0.3,-0.1C0.4,-0.1 0.4,-0.1 0.4,-0.2ZM0.4,-0.3C0.4,-0.3 0.4,-0.4 0.3,-0.4C0.3,-0.4 0.3,-0.4 0.3,-0.4C0.2,-0.4 0.2,-0.4 0.2,-0.4C0.2,-0.4 0.2,-0.3 0.2,-0.3L0.4,-0.3Z" style="fill:rgb(42,143,116);fill-rule:nonzero;"/>
                    </g>
                </g>
            </g>
            <g transform="matrix(0.595049,0,0,0.595049,75.342333,237.575891)">
                <g>
                    <g transform="matrix(96,0,0,96,-5.76,0)">
                        <path d="M0.1,-0L0.1,-0.7L0.6,-0.7L0.6,-0.6L0.2,-0.6L0.2,-0.4L0.6,-0.4L0.6,-0.3L0.2,-0.3L0.2,-0.1L0.6,-0.1L0.6,-0L0.1,-0Z" style="fill:white;fill-opacity:0.75;fill-rule:nonzero;"/>
                    </g>
                    <g transform="matrix(96,0,0,96,64.03125,0)">
                        <path d="M0.3,-0L0,-0.7L0.1,-0.7L0.3,-0.2C0.3,-0.2 0.3,-0.1 0.3,-0.1C0.3,-0.1 0.4,-0.2 0.4,-0.2L0.6,-0.7L0.7,-0.7L0.4,-0L0.3,-0Z" style="fill:white;fill-opacity:0.75;fill-rule:nonzero;"/>
                    </g>
                    <g transform="matrix(96,0,0,96,133.8225,0)">
                        <path d="M0.1,-0L0.1,-0.7L0.3,-0.7C0.4,-0.7 0.4,-0.7 0.5,-0.7C0.5,-0.7 0.5,-0.7 0.6,-0.6C0.6,-0.6 0.6,-0.6 0.6,-0.5C0.6,-0.5 0.6,-0.5 0.6,-0.4C0.5,-0.4 0.5,-0.4 0.5,-0.4C0.5,-0.4 0.6,-0.3 0.6,-0.3C0.6,-0.3 0.6,-0.2 0.6,-0.2C0.6,-0.2 0.6,-0.1 0.6,-0.1C0.6,-0.1 0.6,-0.1 0.5,-0C0.5,-0 0.5,-0 0.5,-0C0.4,-0 0.4,-0 0.3,-0L0.1,-0ZM0.2,-0.4L0.3,-0.4C0.4,-0.4 0.4,-0.4 0.4,-0.4C0.4,-0.4 0.5,-0.4 0.5,-0.5C0.5,-0.5 0.5,-0.5 0.5,-0.5C0.5,-0.5 0.5,-0.6 0.5,-0.6C0.5,-0.6 0.4,-0.6 0.4,-0.6C0.4,-0.6 0.4,-0.6 0.3,-0.6L0.2,-0.6L0.2,-0.4ZM0.2,-0.1L0.3,-0.1C0.4,-0.1 0.4,-0.1 0.4,-0.1C0.4,-0.1 0.5,-0.1 0.5,-0.1C0.5,-0.1 0.5,-0.1 0.5,-0.1C0.5,-0.2 0.5,-0.2 0.5,-0.2C0.5,-0.2 0.5,-0.3 0.5,-0.3C0.5,-0.3 0.5,-0.3 0.4,-0.3C0.4,-0.3 0.4,-0.3 0.3,-0.3L0.2,-0.3L0.2,-0.1Z" style="fill:white;fill-opacity:0.75;fill-rule:nonzero;"/>
                    </g>
                </g>
            </g>
        </g>
        <g transform="matrix(0.671388,0,0,1,65.187713,-9.554307)">
            <path d="M93.6,79.1C93.6,79.1 108.8,135.9 108.8,160.2C108.8,165.9 102,170.5 93.6,170.5C85.1,170.5 78.3,165.9 78.3,160.2C78.3,135.9 93.6,79.1 93.6,79.1Z" style="fill:white;fill-opacity:0.75;"/>
        </g>
    </g>
    <defs>
        <linearGradient id="_Linear1" x1="0" y1="0" x2="1" y2="0" gradientUnits="userSpaceOnUse" gradientTransform="matrix(0,256,-256,0,0,0)"><stop offset="0" style="stop-color:rgb(74,200,167);stop-opacity:1"/><stop offset="1" style="stop-color:rgb(23,110,87);stop-opacity:1"/></linearGradient>
    </defs>
</svg>
